<svg xmlns="http://www.w3.org/2000/svg" width="269" height="49" viewBox="0 0 269 49">
    <g fill="none" fill-rule="evenodd">
        <path fill="#09E077" d="M104.528 10.268c2.154 0 3.31-.843 3.31-2.217 0-.998-.781-1.622-2.622-1.622h-3.778l-.998 3.839h4.088zm-1.748 8.271c2.091 0 3.371-.937 3.371-2.31 0-1.123-.905-1.715-2.685-1.715h-4.183l-1.09 4.025h4.587zM96.85 1.56h9.083c5.962 0 7.898 2.466 7.898 5.244 0 2.779-1.842 4.838-4.9 5.588 1.934.686 3.307 2.123 3.307 4.37 0 3.775-3.152 6.648-9.925 6.648H90.98l5.87-21.85zM119.228 6.521h5.93l-.906 3.404c1.624-2.404 3.593-3.872 6.34-3.685l-1.687 6.245h-.499c-3.247 0-5.339 1.81-6.399 5.835l-1.374 5.089h-5.93l4.525-16.888zM140.922 17.04l.156-.56c-.656-.22-1.404-.375-2.217-.375-1.873 0-3.09.905-3.09 2.434 0 .968.687 1.56 1.686 1.56 1.53 0 2.996-1.341 3.465-3.058m-10.925 2.123c0-3.715 2.967-5.963 7.428-5.963 1.53 0 2.934.25 4.277.657l.063-.22c.061-.28.155-.623.155-1.03 0-1.091-.842-1.81-2.903-1.81-1.592 0-3.37.376-4.555.843l-.845-4.308c1.78-.624 4.215-1.03 6.65-1.03 5.057 0 7.524 1.997 7.524 5.37 0 .781-.127 1.591-.346 2.434l-2.496 9.302h-5.838l.47-1.81c-1.437 1.341-2.906 2.154-4.87 2.154-2.779 0-4.714-1.78-4.714-4.59M155.809.623h6.18l-1.186 4.37h-6.179l1.185-4.37zM154.31 6.52h5.93l-4.523 16.888h-5.93l4.523-16.888zM165.266 6.521h5.931l-.531 1.936c1.155-1.218 2.841-2.309 4.839-2.309 3.06 0 4.902 1.935 4.902 5.056 0 .905-.219 1.968-.501 3.027l-2.435 9.178h-5.93l2.372-8.833c.125-.437.188-1 .188-1.375 0-1.122-.655-1.78-1.874-1.78-1.654 0-2.621 1.125-3.152 3.061l-2.404 8.927h-5.931l4.526-16.888zM186.46 11.298h-1.999l1.282-4.777h1.967l.092-.342c1.061-4.122 3.37-5.775 7.242-5.775 1.466 0 2.653.188 3.776.56l-1.092 4.153c-.622-.218-1.405-.374-1.998-.374-1.216 0-1.841.498-2.123 1.591l-.092.281h3.809l-1.25 4.683h-3.683l-3.278 12.111h-5.929l3.276-12.111zM210.838 14.2c0-1.903-1.187-3.12-2.935-3.12-2.342 0-3.932 2.465-3.932 4.65 0 1.935 1.185 3.153 2.933 3.153 2.342 0 3.934-2.466 3.934-4.683m-12.55 1.75c0-5.089 4.277-9.802 9.926-9.802 5.184 0 8.305 3.403 8.305 7.834 0 5.119-4.277 9.834-9.958 9.834-5.151 0-8.272-3.405-8.272-7.866M223.04 6.521h5.932l-.906 3.404c1.622-2.404 3.59-3.872 6.338-3.685l-1.688 6.245h-.498c-3.246 0-5.339 1.81-6.4 5.835l-1.374 5.089h-5.93l4.526-16.888zM235.838 19.758c0-.688.124-1.407.312-2.217l1.684-6.243h-1.996l1.28-4.777h1.997l1.154-4.275h5.932l-1.155 4.275h3.933l-1.28 4.777h-3.932l-1.437 5.307c-.092.405-.155.779-.155 1.028 0 .687.404 1.062 1.342 1.062.655 0 1.372-.155 2.247-.467l-1.311 4.932c-1.062.375-2.278.593-3.498.593-3.431 0-5.117-1.5-5.117-3.995M254.845.623h5.931l-2.09 7.834c1.155-1.218 2.84-2.31 4.838-2.31 3.059 0 4.901 1.935 4.901 5.057 0 .905-.22 1.968-.498 3.027l-2.437 9.178h-5.93l2.37-8.833c.127-.437.189-1 .189-1.375 0-1.123-.655-1.779-1.872-1.779-1.656 0-2.623 1.124-3.153 3.06l-2.403 8.927h-5.93L254.845.623zM82.718 13.504l3.46-12.71H45.291c.711 0 1.368.7 1.965 1.157 2.893 2.215 4.362 5.308 4.362 9.28 0 3.332-1.138 6.383-3.29 8.867-1.05 1.21-2.334 2.255-3.816 3.135.443.376.854.777 1.23 1.213 1.75 2.017 2.674 4.562 2.674 7.363 0 4.828-2.064 9.085-5.965 11.894-1.044.749-2.209 1.778-3.496 2.19h12.64l3.908-15.171h20.94l3.136-11.478H58.642l1.534-5.74h22.542z"/>
        <path fill="#09E077" d="M24.99 34.412h-7.235l1.792-6.56h6.47c3.2 0 4.8.847 4.8 2.767 0 2.243-2.177 3.793-5.827 3.793zm-1.28-22.548h6.21c3.203 0 4.612.91 4.612 2.766 0 1.922-1.73 3.794-5.572 3.794h-6.914l1.665-6.56zM40.928 1.701C38.61 1.076 35.69.794 32.034.794h-19.85L.144 45.892h24.397c1.665 0 3.217-.296 4.666-.432l.008-.122c11.929-1.127 16.714-6.743 16.714-13.482 0-4.61-3.073-7.773-7.298-8.86C45.483 21.202 49.13 16.642 49.13 11.2c0-4.045-1.795-7.805-8.204-9.539v.04z"/>
        <path fill="#FFF" d="M91.518 36.674L87.962 36.674 88.263 35.574 96.567 35.574 96.266 36.674 92.708 36.674 90.178 46.125 88.986 46.125zM102.671 45.25c.433 0 .85-.096 1.252-.293.401-.194.757-.458 1.07-.788.31-.331.56-.712.738-1.143.18-.43.271-.879.271-1.34 0-.791-.226-1.404-.678-1.84-.453-.438-1.04-.655-1.764-.655-.452 0-.879.103-1.28.308-.401.206-.754.474-1.055.805-.303.33-.542.712-.725 1.143-.18.43-.271.872-.271 1.321 0 .794.227 1.406.678 1.835.454.432 1.04.647 1.764.647m-.074 1.056c-.535 0-1.018-.089-1.455-.264-.437-.176-.812-.42-1.122-.73-.313-.313-.551-.681-.717-1.109-.165-.428-.248-.892-.248-1.394 0-.603.122-1.185.369-1.75.245-.56.576-1.056.995-1.483.415-.428.9-.77 1.453-1.025.554-.257 1.142-.384 1.764-.384.533 0 1.018.086 1.455.263.438.176.812.418 1.12.723.313.307.556.674.726 1.1.17.427.257.893.257 1.396 0 .62-.127 1.215-.379 1.778-.25.563-.588 1.057-1.01 1.483-.42.428-.909.768-1.46 1.019-.552.251-1.137.377-1.748.377M115.272 44.526c.441 0 .862-.086 1.266-.263.4-.176.756-.41 1.063-.701.305-.292.549-.624.73-1.002.182-.376.271-.767.271-1.167 0-.283-.054-.556-.166-.823-.11-.266-.27-.501-.474-.708-.206-.207-.457-.369-.755-.49-.297-.12-.628-.181-1.003-.181-.411 0-.81.081-1.196.241-.388.161-.728.388-1.026.68-.296.29-.533.634-.715 1.033-.18.396-.272.826-.272 1.288 0 .35.063.657.189.918.123.261.293.478.505.648.21.171.451.303.724.392.271.091.555.135.86.135m-.71 4.04c-.724 0-1.418-.12-2.088-.362-.667-.241-1.243-.571-1.724-.996l.723-.812c.42.351.889.636 1.4.852.513.215 1.07.325 1.674.325.492 0 .922-.074 1.289-.22.367-.145.666-.339.897-.58.24-.233.437-.5.588-.806.15-.307.28-.662.39-1.063l.212-.783c-.393.4-.827.735-1.303 1-.48.267-1.038.4-1.68.4-.413 0-.808-.065-1.185-.195-.378-.13-.713-.322-1.01-.573-.296-.25-.531-.558-.708-.918-.174-.362-.264-.781-.264-1.252 0-.644.128-1.236.376-1.779.253-.543.582-1.01.989-1.402.407-.392.875-.694 1.402-.912.528-.214 1.06-.323 1.604-.323.423 0 .786.052 1.093.158.306.105.572.247.798.422.228.176.419.377.574.602.156.227.287.457.4.687l.452-1.704h1.16l-1.778 6.677c-.171.604-.355 1.093-.55 1.469-.196.378-.435.707-.717.988-.36.362-.787.636-1.28.821-.494.185-1.072.28-1.734.28M130.976 41.739c.021-.08.036-.167.045-.256.01-.09.016-.2.016-.333 0-.27-.038-.526-.113-.768-.075-.24-.193-.453-.354-.633-.162-.182-.366-.326-.61-.438-.248-.11-.536-.164-.867-.164-.383 0-.742.066-1.078.202-.339.136-.64.321-.906.558-.266.237-.494.51-.693.822-.196.312-.348.647-.458 1.01h5.018zm-5.184.934c-.01.052-.017.095-.017.137v.134c0 .714.214 1.284.635 1.71.422.429.994.642 1.719.642.5 0 .939-.082 1.31-.241.372-.162.733-.388 1.085-.68l.604.77c-.383.322-.817.595-1.305.822-.487.226-1.074.339-1.756.339-.513 0-.981-.082-1.409-.242-.429-.16-.79-.385-1.093-.677-.3-.291-.535-.642-.7-1.05-.167-.406-.249-.855-.249-1.347 0-.594.113-1.178.339-1.757.226-.576.542-1.092.95-1.543.406-.454.886-.82 1.44-1.101.552-.282 1.155-.422 1.809-.422.489 0 .926.08 1.302.24.376.161.692.378.943.65.25.27.442.585.572.949.132.36.196.744.196 1.144 0 .262-.025.52-.076.777-.05.257-.12.506-.21.746h-6.089zM138.83 46.259c-.564 0-1.02-.126-1.374-.383-.35-.255-.526-.64-.526-1.154 0-.14.01-.279.03-.42.019-.142.045-.273.077-.394l1.22-4.55h-1.07l.27-1.026h1.084l.633-2.35h1.147l-.634 2.35h2.457l-.27 1.025h-2.457l-1.206 4.48c-.02.09-.036.189-.046.294-.01.105-.016.197-.016.278 0 .27.097.47.287.602.192.128.452.194.784.194.343 0 .719-.076 1.131-.226l-.287 1.055c-.201.08-.4.138-.594.173-.196.036-.41.052-.64.052M148.052 35.12h1.16l-1.204 4.479c.349-.402.74-.743 1.174-1.02.433-.276.945-.412 1.539-.412.753 0 1.358.214 1.816.647.457.434.685 1.02.685 1.764 0 .181-.021.377-.06.588-.041.21-.087.417-.137.619l-1.16 4.34h-1.16l1.176-4.407c.04-.13.07-.275.09-.436.021-.16.03-.306.03-.435 0-.513-.154-.91-.467-1.197-.312-.286-.739-.427-1.28-.427-.302 0-.598.062-.89.187-.291.126-.564.298-.813.518-.252.22-.476.485-.67.79-.198.307-.346.644-.446 1.016l-1.176 4.391h-1.16l2.953-11.004zM164.18 41.739c.019-.08.034-.167.045-.256.009-.09.015-.2.015-.333 0-.27-.038-.526-.112-.768-.077-.24-.194-.453-.356-.633-.16-.182-.364-.326-.609-.438-.247-.11-.535-.164-.867-.164-.383 0-.743.066-1.078.202-.337.136-.637.321-.905.558-.266.237-.496.51-.692.822-.197.312-.35.647-.462 1.01h5.021zm-5.185.934c-.011.052-.015.095-.015.137v.134c0 .714.211 1.284.634 1.71.42.429.993.642 1.716.642.504 0 .941-.082 1.312-.241.371-.162.734-.388 1.086-.68l.6.77c-.38.322-.815.595-1.3.822-.49.226-1.075.339-1.756.339-.515 0-.983-.082-1.41-.242-.428-.16-.792-.385-1.094-.677-.3-.291-.534-.642-.701-1.05-.166-.406-.248-.855-.248-1.347 0-.594.113-1.178.34-1.757.225-.576.54-1.092.948-1.543.409-.454.886-.82 1.44-1.101.554-.282 1.156-.422 1.81-.422.492 0 .926.08 1.303.24.377.161.691.378.942.65.25.27.442.585.573.949.13.36.195.744.195 1.144 0 .262-.026.52-.076.777-.049.257-.12.506-.21.746h-6.089zM171.324 38.332h1.158l-.526 2.035c.244-.342.495-.65.762-.925.265-.278.555-.512.865-.703.312-.191.64-.334.982-.43.34-.095.707-.133 1.099-.112l-.332 1.251h-.076c-.422 0-.841.078-1.257.234-.417.155-.802.384-1.16.685-.358.301-.677.679-.958 1.132-.28.451-.498.969-.647 1.552l-.83 3.074h-1.16l2.08-7.793zM188.114 39.357h-1.071l.272-1.025h1.07l.256-.935c.2-.784.527-1.364.98-1.74.451-.376 1.014-.566 1.686-.566.615 0 1.133.112 1.555.334l-.272.992c-.232-.109-.444-.19-.642-.24-.195-.05-.408-.076-.64-.076-.37 0-.69.119-.957.356-.266.235-.47.61-.61 1.122l-.195.753h2.546l-.284 1.025h-2.534l-1.822 6.768h-1.162l1.824-6.768zM198.618 45.25c.433 0 .848-.096 1.251-.293.403-.194.76-.458 1.071-.788.31-.331.557-.712.739-1.143.18-.43.269-.879.269-1.34 0-.791-.224-1.404-.676-1.84-.452-.438-1.04-.655-1.764-.655-.452 0-.878.103-1.282.308-.4.206-.753.474-1.054.805-.302.33-.543.712-.723 1.143-.18.43-.272.872-.272 1.321 0 .794.228 1.406.678 1.835.453.432 1.04.647 1.763.647m-.073 1.056c-.534 0-1.019-.089-1.456-.264-.436-.176-.812-.42-1.122-.73-.312-.313-.55-.681-.716-1.109-.166-.428-.249-.892-.249-1.394 0-.603.124-1.185.37-1.75.243-.56.577-1.056.995-1.483.415-.428.9-.77 1.453-1.025.553-.257 1.141-.384 1.764-.384.532 0 1.019.086 1.455.263.436.176.81.418 1.123.723.31.307.551.674.722 1.1.17.427.257.893.257 1.396 0 .62-.126 1.215-.378 1.778s-.586 1.057-1.01 1.483c-.422.428-.907.768-1.461 1.019-.553.251-1.136.377-1.747.377M209.23 38.332h1.16l-.527 2.035c.239-.342.493-.65.76-.925.266-.278.555-.512.867-.703.31-.191.639-.334.98-.43.342-.095.709-.133 1.1-.112l-.332 1.251h-.076c-.421 0-.841.078-1.257.234-.417.155-.804.384-1.162.685-.356.301-.673.679-.956 1.132-.282.451-.498.969-.649 1.552l-.828 3.074h-1.162l2.081-7.793zM217.399 38.332L218.574 38.332 218.981 44.543 222.749 38.301 223.714 38.301 224.149 44.543 227.903 38.332 229.11 38.332 224.257 46.184 223.231 46.184 222.78 40.036 219.026 46.184 218.017 46.184zM234.866 45.355c.333 0 .659-.055.982-.164.321-.11.619-.266.895-.472.275-.205.518-.448.724-.727.205-.281.354-.59.446-.932l.15-.54c-.342-.09-.727-.169-1.154-.239-.427-.07-.881-.105-1.365-.105-.693 0-1.251.168-1.68.502-.427.336-.64.773-.64 1.314 0 .418.146.751.437.996.292.246.694.367 1.205.367m-.375.935c-.332 0-.647-.048-.944-.143-.296-.095-.556-.234-.783-.414-.224-.181-.405-.404-.533-.67-.134-.267-.199-.576-.199-.927 0-.433.085-.825.258-1.176.17-.352.411-.648.724-.889.31-.242.678-.428 1.099-.558.422-.13.885-.196 1.387-.196.523 0 1.019.042 1.491.128.472.085.896.182 1.267.294l.06-.197c.02-.109.04-.228.06-.354.02-.125.031-.243.031-.354 0-.502-.174-.889-.52-1.16-.347-.272-.871-.406-1.577-.406-.42 0-.805.035-1.152.105-.346.07-.696.17-1.047.3l-.212-.979c.393-.15.794-.269 1.205-.355.414-.086.876-.129 1.39-.129.984 0 1.74.217 2.268.65.527.432.792 1.025.792 1.778 0 .162-.015.334-.04.52-.025.187-.062.369-.111.55l-1.177 4.417-1.145-.003.315-1.218c-.351.421-.767.759-1.251 1.01-.481.25-1.036.376-1.656.376M245.779 38.332h1.16l-.527 2.035c.24-.342.495-.65.761-.925.265-.278.555-.512.867-.703.312-.191.639-.334.979-.43.342-.095.708-.133 1.1-.112l-.33 1.251h-.078c-.42 0-.84.078-1.259.234-.415.155-.8.384-1.158.685-.358.301-.675.679-.956 1.132-.281.451-.5.969-.649 1.552l-.829 3.074h-1.162l2.081-7.793zM256.676 45.28c.43 0 .856-.104 1.272-.309.418-.205.788-.477 1.11-.813.322-.336.58-.726.783-1.169.2-.441.3-.904.3-1.385 0-.344-.057-.66-.172-.95-.115-.292-.278-.546-.49-.763-.211-.214-.464-.385-.76-.512-.298-.125-.626-.188-.989-.188-.462 0-.892.1-1.287.302-.397.2-.74.469-1.034.806-.29.337-.519.73-.683 1.185-.168.45-.25.922-.25 1.416 0 .36.053.687.157.978.105.292.257.543.452.755.195.211.43.371.701.482.273.11.57.165.89.165m-.333 1.026c-.44 0-.851-.082-1.227-.242-.378-.16-.702-.384-.98-.67-.276-.286-.493-.634-.649-1.04-.155-.407-.233-.856-.233-1.35 0-.692.122-1.333.363-1.921.24-.588.565-1.099.972-1.53.407-.431.872-.772 1.395-1.017.52-.247 1.068-.369 1.642-.369.402 0 .759.052 1.069.158.313.105.588.247.83.422.241.176.444.382.611.617.165.238.304.48.413.733l1.327-4.976h1.16l-2.939 11.004h-1.16l.346-1.328c-.372.422-.796.78-1.273 1.071-.478.292-1.032.438-1.667.438"/>
    </g>
</svg>
